<svg xmlns="http://www.w3.org/2000/svg" width="24.174" height="24.174" viewBox="0 0 24.174 24.174">
  <g id="Icon_feather-instagram" data-name="Icon feather-instagram" transform="translate(-1.5 -1.5)">
    <path id="Tracé_7" data-name="Tracé 7" d="M8.293,3H18.88a5.293,5.293,0,0,1,5.293,5.293V18.88a5.293,5.293,0,0,1-5.293,5.293H8.293A5.293,5.293,0,0,1,3,18.88V8.293A5.293,5.293,0,0,1,8.293,3Z" fill="none" stroke="#fff" stroke-linecap="round" stroke-linejoin="round" stroke-width="3"/>
    <path id="Tracé_8" data-name="Tracé 8" d="M20.489,15.549a4.235,4.235,0,1,1-3.568-3.568,4.235,4.235,0,0,1,3.568,3.568Z" transform="translate(-2.667 -2.629)" fill="none" stroke="#fff" stroke-linecap="round" stroke-linejoin="round" stroke-width="3"/>
    <path id="Tracé_9" data-name="Tracé 9" d="M26.25,9.75h0" transform="translate(-6.84 -1.986)" fill="none" stroke="#fff" stroke-linecap="round" stroke-linejoin="round" stroke-width="3"/>
  </g>
</svg>
