<svg xmlns="http://www.w3.org/2000/svg" width="20.567" height="20.566" viewBox="0 0 20.567 20.566">
  <path id="Icon_awesome-linkedin-in" data-name="Icon awesome-linkedin-in" d="M4.6,20.567H.34V6.836H4.6ZM2.469,4.963A2.481,2.481,0,1,1,4.939,2.47,2.49,2.49,0,0,1,2.469,4.963Zm18.093,15.6H16.307V13.883c0-1.593-.032-3.636-2.217-3.636-2.217,0-2.557,1.731-2.557,3.521v6.8H7.275V6.836h4.089V8.709h.06a4.48,4.48,0,0,1,4.034-2.217c4.315,0,5.109,2.842,5.109,6.533v7.543Z" transform="translate(0 -0.001)" fill="#fff"/>
</svg>
