<svg xmlns="http://www.w3.org/2000/svg" width="29.961" height="21.066" viewBox="0 0 29.961 21.066">
  <path id="Icon_awesome-youtube" data-name="Icon awesome-youtube" d="M30.385,7.8A3.765,3.765,0,0,0,27.736,5.13C25.4,4.5,16.03,4.5,16.03,4.5s-9.369,0-11.706.63A3.765,3.765,0,0,0,1.676,7.8a39.492,39.492,0,0,0-.626,7.258,39.492,39.492,0,0,0,.626,7.258,3.709,3.709,0,0,0,2.649,2.623c2.337.63,11.706.63,11.706.63s9.369,0,11.706-.63a3.709,3.709,0,0,0,2.649-2.623,39.492,39.492,0,0,0,.626-7.258A39.492,39.492,0,0,0,30.385,7.8ZM12.966,19.509V10.6L20.8,15.054l-7.831,4.455Z" transform="translate(-1.05 -4.5)" fill="#fff"/>
</svg>
